<?xml version="1.0" encoding="UTF-8" standalone="no"?><!DOCTYPE svg PUBLIC "-//W3C//DTD SVG 1.1//EN" "http://www.w3.org/Graphics/SVG/1.1/DTD/svg11.dtd"><svg width="100%" height="100%" viewBox="0 0 114 35" version="1.1" xmlns="http://www.w3.org/2000/svg" xmlns:xlink="http://www.w3.org/1999/xlink" xml:space="preserve" xmlns:serif="http://www.serif.com/" style="fill-rule:evenodd;clip-rule:evenodd;stroke-linejoin:round;stroke-miterlimit:2;"><rect id="Artboard1" x="0" y="-0" width="113.386" height="34.016" style="fill:none;"/><g><path d="M15.228,19.527c2.826,0 4.671,-1.415 4.671,-3.638c-0,-2.465 -2.201,-3.12 -4.181,-3.621c-1.559,-0.415 -2.026,-0.589 -2.026,-1.2c-0,-0.392 0.556,-0.676 1.358,-0.676c0.98,-0 2.181,0.371 3.226,1.003l1.312,-2.266c-1.267,-0.828 -2.89,-1.394 -4.538,-1.394c-2.714,-0 -4.515,1.524 -4.493,3.66c0.023,2.225 1.845,2.858 4.204,3.425c1.18,0.305 2.026,0.523 2.026,1.221c-0,0.502 -0.624,0.851 -1.492,0.851c-1.537,-0 -2.826,-0.545 -3.848,-1.265l-1.401,2.202c1.378,1.089 3.334,1.698 5.182,1.698Z" style="fill:#e6e6e6;fill-rule:nonzero;"/><path d="M20.946,11.535l0,-0.514c0,-1.67 1.354,-3.025 3.025,-3.025l0.22,0l0,1.196c-2.509,0.14 -3.088,2.128 -3.245,2.343Zm3.245,-1.14l0,8.871l-3.245,-0l0,-7.731l0.004,0.35c0.148,-0.202 0.757,-1.385 3.241,-1.49Z" style="fill:#e6e6e6;"/><path d="M39.09,7.735c-1.714,-0 -3.139,0.806 -3.739,2.047c-0.712,-1.263 -2.068,-2.047 -3.647,-2.047c-1.425,-0 -2.561,0.675 -3.117,1.742l-0,-1.481l-3.246,0l0,11.27l3.246,-0l-0,-6.803c-0,-1.199 0.913,-2.049 2.226,-2.049c1.18,-0 2.026,0.915 2.026,2.224l-0,6.65l3.112,-0l-0,-6.825c-0,-1.199 0.935,-2.049 2.226,-2.049c1.202,-0 2.048,0.915 2.048,2.224l0,6.65l3.112,-0l0,-7.195c0,-2.55 -1.845,-4.358 -4.247,-4.358Z" style="fill:#e6e6e6;fill-rule:nonzero;"/><path d="M53.852,7.735c-1.714,-0 -3.139,0.806 -3.739,2.047c-0.711,-1.263 -2.067,-2.047 -3.647,-2.047c-1.425,-0 -2.733,0.675 -3.29,1.742l-0.363,0.633l0.536,2.353c0,-1.199 0.913,-2.049 2.226,-2.049c1.18,-0 2.026,0.915 2.026,2.224l0,6.65l3.112,-0l0,-6.825c0,-1.199 0.935,-2.049 2.226,-2.049c1.203,-0 2.048,0.915 2.048,2.224l0,6.65l3.112,-0l0,-7.195c0,-2.55 -1.845,-4.358 -4.247,-4.358Z" style="fill:#e6e6e6;fill-rule:nonzero;"/><path d="M65.317,19.288c3.336,-0 6.123,-2.646 6.123,-5.788c0,-3.141 -2.787,-5.765 -6.123,-5.765c-3.358,-0 -6.167,2.624 -6.167,5.765c0,3.142 2.809,5.788 6.167,5.788Zm-0.897,-2.63c-1.504,-0.463 -2.345,-2.299 -1.86,-4.004c0.486,-1.705 2.146,-2.747 3.651,-2.284c1.485,0.457 2.332,2.271 1.846,3.976c-0.485,1.705 -2.152,2.769 -3.637,2.312Z" style="fill:#e6e6e6;fill-rule:nonzero;"/><path d="M79.081,7.735c-1.492,-0 -2.783,0.653 -3.473,1.677l-0,-1.416l-3.246,0l0,11.27l3.246,-0l-0,-6.737l0.022,0.065c0,-1.221 1.046,-2.18 2.404,-2.18c1.292,-0 2.182,0.959 2.182,2.354l-0,6.498l3.134,-0l0,-7.173c0,-2.55 -1.778,-4.358 -4.269,-4.358Z" style="fill:#e6e6e6;fill-rule:nonzero;"/><path d="M89.773,19.527c2.825,0 4.67,-1.415 4.67,-3.638c0,-2.465 -2.2,-3.12 -4.181,-3.621c-1.558,-0.415 -2.026,-0.589 -2.026,-1.2c0,-0.392 0.557,-0.676 1.358,-0.676c0.98,-0 2.182,0.371 3.227,1.003l1.311,-2.266c-1.267,-0.828 -2.89,-1.394 -4.538,-1.394c-2.714,-0 -4.514,1.524 -4.492,3.66c0.022,2.225 1.845,2.858 4.203,3.425c1.18,0.305 2.026,0.523 2.026,1.221c0,0.502 -0.623,0.851 -1.492,0.851c-1.536,-0 -2.825,-0.545 -3.848,-1.265l-1.401,2.202c1.379,1.089 3.335,1.698 5.183,1.698Z" style="fill:#e6e6e6;fill-rule:nonzero;"/></g><rect x="102.609" y="7.218" width="1.691" height="20.54" style="fill:#fcaf2f;"/><path d="M55.213,23.103l0,2.274c0,0.439 -0.156,0.813 -0.467,1.123c-0.31,0.31 -0.684,0.465 -1.121,0.465c-0.439,0 -0.814,-0.155 -1.124,-0.465c-0.31,-0.31 -0.465,-0.684 -0.465,-1.123l0,-2.398l-0.317,0l-0,2.398c-0,0.525 0.185,0.975 0.557,1.349c0.374,0.371 0.823,0.557 1.349,0.557c0.524,0 0.972,-0.186 1.346,-0.557c0.371,-0.374 0.557,-0.824 0.557,-1.349l0,-2.532l-0.315,0.258Zm22.201,-0.28c-0.613,0 -1.136,0.218 -1.571,0.653c-0.434,0.434 -0.65,0.956 -0.65,1.569c-0,0.612 0.216,1.135 0.65,1.568c0.435,0.435 0.958,0.653 1.571,0.653c0.472,-0 0.899,-0.138 1.282,-0.413c0.179,-0.129 0.334,-0.276 0.463,-0.441c0.141,-0.181 -0.167,-0.292 -0.277,-0.158c-0.117,0.142 -0.255,0.267 -0.414,0.373c-0.32,0.214 -0.671,0.321 -1.054,0.321c-0.505,0 -0.941,-0.173 -1.309,-0.52c-0.364,-0.346 -0.56,-0.77 -0.589,-1.271l4.113,0l0.006,-0.112c-0,-0.058 -0.004,-0.126 -0.012,-0.205c-0.052,-0.567 -0.288,-1.043 -0.71,-1.43c-0.424,-0.391 -0.923,-0.587 -1.499,-0.587Zm16.214,4.456l0.318,-0l-0,-2.234c-0,-0.613 -0.218,-1.135 -0.653,-1.569c-0.433,-0.435 -0.956,-0.653 -1.568,-0.653c-0.613,0 -1.136,0.218 -1.571,0.653c-0.434,0.434 -0.65,0.956 -0.65,1.569c-0,0.612 0.216,1.136 0.65,1.571c0.435,0.433 0.958,0.65 1.571,0.65c0.396,-0 0.766,-0.099 1.109,-0.298c0.331,-0.194 0.596,-0.456 0.794,-0.785l0,1.096Zm-8.215,-3.372c-0.199,-0.33 -0.463,-0.591 -0.795,-0.783c-0.342,-0.2 -0.712,-0.301 -1.109,-0.301c-0.612,0 -1.136,0.218 -1.571,0.653c-0.433,0.434 -0.65,0.956 -0.65,1.569c0,0.612 0.217,1.136 0.65,1.571c0.435,0.433 0.959,0.65 1.571,0.65c0.613,-0 1.135,-0.217 1.569,-0.65c0.435,-0.435 0.652,-0.959 0.652,-1.571l0,-3.218l-0.317,0l-0,2.08Zm-22.776,2.697c-0.247,0.224 -0.539,0.335 -0.876,0.335c-0.362,0 -0.671,-0.128 -0.927,-0.384c-0.256,-0.256 -0.384,-0.565 -0.384,-0.927l0,-2.344l2.187,0l-0,-0.317l-2.187,-0l0,-0.73l-0.32,0l-0,3.391c-0,0.449 0.16,0.833 0.482,1.153c0.318,0.317 0.701,0.476 1.149,0.476c0.326,0 0.618,-0.084 0.876,-0.251l-0,-0.402Zm2.141,0.665l0.318,0l0,-4.354l-0.318,0.289l0,4.065Zm22.738,0l0.318,0l-0,-4.506l-0.318,0.247l0,4.259Zm-29.846,0.008l0.318,0l-0,-5.453l-0.318,0l0,5.453Zm-14.06,0.006l-0,-2.629c-0,-0.367 0.129,-0.682 0.389,-0.944c0.26,-0.26 0.574,-0.39 0.942,-0.39c0.368,-0 0.683,0.13 0.945,0.39c0.259,0.262 0.389,0.577 0.389,0.944l0,2.629l0.318,-0l0,-2.629c0,-0.367 0.13,-0.682 0.39,-0.944c0.26,-0.26 0.574,-0.39 0.942,-0.39c0.367,-0 0.682,0.13 0.944,0.39c0.26,0.262 0.39,0.577 0.39,0.944l0,2.629l0.318,-0l-0,-2.629c-0,-0.456 -0.162,-0.845 -0.485,-1.167c-0.322,-0.323 -0.711,-0.485 -1.167,-0.485c-0.324,0 -0.621,0.089 -0.893,0.266c-0.264,0.171 -0.463,0.399 -0.598,0.684c-0.134,-0.285 -0.334,-0.513 -0.598,-0.684c-0.271,-0.177 -0.57,-0.266 -0.895,-0.266c-0.454,0 -0.842,0.162 -1.164,0.485c-0.323,0.322 -0.485,0.711 -0.485,1.167l-0,2.629l0.318,-0Zm23.946,-0.001l-0,-2.629c-0,-0.367 0.13,-0.682 0.389,-0.944c0.26,-0.26 0.574,-0.39 0.942,-0.39c0.368,-0 0.683,0.13 0.945,0.39c0.26,0.262 0.389,0.577 0.389,0.944l0,2.629l0.318,-0l0,-2.629c0,-0.367 0.13,-0.682 0.39,-0.944c0.26,-0.26 0.574,-0.39 0.942,-0.39c0.368,-0 0.682,0.13 0.944,0.39c0.26,0.262 0.39,0.577 0.39,0.944l0,2.629l0.318,-0l-0,-2.629c-0,-0.456 -0.162,-0.845 -0.485,-1.167c-0.322,-0.323 -0.711,-0.485 -1.167,-0.485c-0.324,0 -0.621,0.089 -0.893,0.266c-0.264,0.171 -0.463,0.399 -0.598,0.684c-0.134,-0.285 -0.334,-0.513 -0.598,-0.684c-0.271,-0.177 -0.57,-0.266 -0.895,-0.266c-0.454,0 -0.842,0.162 -1.164,0.485c-0.323,0.322 -0.485,0.711 -0.485,1.167l-0,2.629l0.318,-0Zm26.072,-2.237c0,0.525 -0.186,0.974 -0.557,1.346c-0.372,0.371 -0.821,0.557 -1.346,0.557c-0.526,0 -0.975,-0.186 -1.346,-0.557c-0.372,-0.372 -0.558,-0.821 -0.558,-1.346c0,-0.526 0.186,-0.975 0.558,-1.346c0.371,-0.372 0.82,-0.558 1.346,-0.558c0.525,0 0.974,0.186 1.346,0.558c0.371,0.371 0.557,0.82 0.557,1.346Zm-8.215,-0c-0,0.525 -0.186,0.974 -0.558,1.346c-0.371,0.371 -0.82,0.557 -1.346,0.557c-0.525,0 -0.974,-0.186 -1.346,-0.557c-0.371,-0.372 -0.557,-0.821 -0.557,-1.346c-0,-0.526 0.186,-0.975 0.557,-1.346c0.372,-0.372 0.821,-0.558 1.346,-0.558c0.526,0 0.975,0.186 1.346,0.558c0.372,0.371 0.558,0.82 0.558,1.346Zm-9.891,-0.205c0.05,-0.48 0.255,-0.882 0.615,-1.208c0.362,-0.327 0.788,-0.491 1.277,-0.491c0.487,0 0.913,0.164 1.276,0.491c0.359,0.326 0.564,0.728 0.616,1.208l-3.784,-0Z" style="fill:#fcaf2f;fill-rule:nonzero;"/><clipPath id="_clip1"><path d="M55.213,23.103l0,2.274c0,0.439 -0.156,0.813 -0.467,1.123c-0.31,0.31 -0.684,0.465 -1.121,0.465c-0.439,0 -0.814,-0.155 -1.124,-0.465c-0.31,-0.31 -0.465,-0.684 -0.465,-1.123l0,-2.398l-0.317,0l-0,2.398c-0,0.525 0.185,0.975 0.557,1.349c0.374,0.371 0.823,0.557 1.349,0.557c0.524,0 0.972,-0.186 1.346,-0.557c0.371,-0.374 0.557,-0.824 0.557,-1.349l0,-2.532l-0.315,0.258Zm22.201,-0.28c-0.613,0 -1.136,0.218 -1.571,0.653c-0.434,0.434 -0.65,0.956 -0.65,1.569c-0,0.612 0.216,1.135 0.65,1.568c0.435,0.435 0.958,0.653 1.571,0.653c0.472,-0 0.899,-0.138 1.282,-0.413c0.179,-0.129 0.334,-0.276 0.463,-0.441c0.141,-0.181 -0.167,-0.292 -0.277,-0.158c-0.117,0.142 -0.255,0.267 -0.414,0.373c-0.32,0.214 -0.671,0.321 -1.054,0.321c-0.505,0 -0.941,-0.173 -1.309,-0.52c-0.364,-0.346 -0.56,-0.77 -0.589,-1.271l4.113,0l0.006,-0.112c-0,-0.058 -0.004,-0.126 -0.012,-0.205c-0.052,-0.567 -0.288,-1.043 -0.71,-1.43c-0.424,-0.391 -0.923,-0.587 -1.499,-0.587Zm16.214,4.456l0.318,-0l-0,-2.234c-0,-0.613 -0.218,-1.135 -0.653,-1.569c-0.433,-0.435 -0.956,-0.653 -1.568,-0.653c-0.613,0 -1.136,0.218 -1.571,0.653c-0.434,0.434 -0.65,0.956 -0.65,1.569c-0,0.612 0.216,1.136 0.65,1.571c0.435,0.433 0.958,0.65 1.571,0.65c0.396,-0 0.766,-0.099 1.109,-0.298c0.331,-0.194 0.596,-0.456 0.794,-0.785l0,1.096Zm-8.215,-3.372c-0.199,-0.33 -0.463,-0.591 -0.795,-0.783c-0.342,-0.2 -0.712,-0.301 -1.109,-0.301c-0.612,0 -1.136,0.218 -1.571,0.653c-0.433,0.434 -0.65,0.956 -0.65,1.569c0,0.612 0.217,1.136 0.65,1.571c0.435,0.433 0.959,0.65 1.571,0.65c0.613,-0 1.135,-0.217 1.569,-0.65c0.435,-0.435 0.652,-0.959 0.652,-1.571l0,-3.218l-0.317,0l-0,2.08Zm-22.776,2.697c-0.247,0.224 -0.539,0.335 -0.876,0.335c-0.362,0 -0.671,-0.128 -0.927,-0.384c-0.256,-0.256 -0.384,-0.565 -0.384,-0.927l0,-2.344l2.187,0l-0,-0.317l-2.187,-0l0,-0.73l-0.32,0l-0,3.391c-0,0.449 0.16,0.833 0.482,1.153c0.318,0.317 0.701,0.476 1.149,0.476c0.326,0 0.618,-0.084 0.876,-0.251l-0,-0.402Zm2.141,0.665l0.318,0l0,-4.354l-0.318,0.289l0,4.065Zm22.738,0l0.318,0l-0,-4.506l-0.318,0.247l0,4.259Zm-29.846,0.008l0.318,0l-0,-5.453l-0.318,0l0,5.453Zm-14.06,0.006l-0,-2.629c-0,-0.367 0.129,-0.682 0.389,-0.944c0.26,-0.26 0.574,-0.39 0.942,-0.39c0.368,-0 0.683,0.13 0.945,0.39c0.259,0.262 0.389,0.577 0.389,0.944l0,2.629l0.318,-0l0,-2.629c0,-0.367 0.13,-0.682 0.39,-0.944c0.26,-0.26 0.574,-0.39 0.942,-0.39c0.367,-0 0.682,0.13 0.944,0.39c0.26,0.262 0.39,0.577 0.39,0.944l0,2.629l0.318,-0l-0,-2.629c-0,-0.456 -0.162,-0.845 -0.485,-1.167c-0.322,-0.323 -0.711,-0.485 -1.167,-0.485c-0.324,0 -0.621,0.089 -0.893,0.266c-0.264,0.171 -0.463,0.399 -0.598,0.684c-0.134,-0.285 -0.334,-0.513 -0.598,-0.684c-0.271,-0.177 -0.57,-0.266 -0.895,-0.266c-0.454,0 -0.842,0.162 -1.164,0.485c-0.323,0.322 -0.485,0.711 -0.485,1.167l-0,2.629l0.318,-0Zm23.946,-0.001l-0,-2.629c-0,-0.367 0.13,-0.682 0.389,-0.944c0.26,-0.26 0.574,-0.39 0.942,-0.39c0.368,-0 0.683,0.13 0.945,0.39c0.26,0.262 0.389,0.577 0.389,0.944l0,2.629l0.318,-0l0,-2.629c0,-0.367 0.13,-0.682 0.39,-0.944c0.26,-0.26 0.574,-0.39 0.942,-0.39c0.368,-0 0.682,0.13 0.944,0.39c0.26,0.262 0.39,0.577 0.39,0.944l0,2.629l0.318,-0l-0,-2.629c-0,-0.456 -0.162,-0.845 -0.485,-1.167c-0.322,-0.323 -0.711,-0.485 -1.167,-0.485c-0.324,0 -0.621,0.089 -0.893,0.266c-0.264,0.171 -0.463,0.399 -0.598,0.684c-0.134,-0.285 -0.334,-0.513 -0.598,-0.684c-0.271,-0.177 -0.57,-0.266 -0.895,-0.266c-0.454,0 -0.842,0.162 -1.164,0.485c-0.323,0.322 -0.485,0.711 -0.485,1.167l-0,2.629l0.318,-0Zm26.072,-2.237c0,0.525 -0.186,0.974 -0.557,1.346c-0.372,0.371 -0.821,0.557 -1.346,0.557c-0.526,0 -0.975,-0.186 -1.346,-0.557c-0.372,-0.372 -0.558,-0.821 -0.558,-1.346c0,-0.526 0.186,-0.975 0.558,-1.346c0.371,-0.372 0.82,-0.558 1.346,-0.558c0.525,0 0.974,0.186 1.346,0.558c0.371,0.371 0.557,0.82 0.557,1.346Zm-8.215,-0c-0,0.525 -0.186,0.974 -0.558,1.346c-0.371,0.371 -0.82,0.557 -1.346,0.557c-0.525,0 -0.974,-0.186 -1.346,-0.557c-0.371,-0.372 -0.557,-0.821 -0.557,-1.346c-0,-0.526 0.186,-0.975 0.557,-1.346c0.372,-0.372 0.821,-0.558 1.346,-0.558c0.526,0 0.975,0.186 1.346,0.558c0.372,0.371 0.558,0.82 0.558,1.346Zm-9.891,-0.205c0.05,-0.48 0.255,-0.882 0.615,-1.208c0.362,-0.327 0.788,-0.491 1.277,-0.491c0.487,0 0.913,0.164 1.276,0.491c0.359,0.326 0.564,0.728 0.616,1.208l-3.784,-0Z" clip-rule="nonzero"/></clipPath><g clip-path="url(#_clip1)"><path d="M110.525,27.375c0,-0.057 -0.022,-0.111 -0.062,-0.151c-0.04,-0.04 -0.095,-0.063 -0.151,-0.063c-3.651,0 -52.925,0 -56.752,0c-0.13,0 -0.236,0.105 -0.236,0.235c0,1.253 0,7.084 0,7.084l57.201,-0l0,-7.105Z" style="fill:url(#_Linear2);"/></g><path d="M79.635,25.245l0.199,-0.187l-0.005,0.107c-0.009,0.179 -0.2,0.192 -0.2,0.192c0,0 -3.889,0 -3.889,0c0.062,0.357 0.23,0.666 0.503,0.926c0.329,0.31 0.719,0.465 1.171,0.465c0.343,0 0.657,-0.096 0.943,-0.287c0.142,-0.095 0.266,-0.207 0.37,-0.334c0.112,-0.136 0.322,-0.162 0.471,-0.094c0.091,0.042 0.156,0.114 0.183,0.198c0.027,0.085 0.024,0.19 -0.064,0.304c-0.141,0.18 -0.309,0.341 -0.504,0.48c-0.418,0.301 -0.885,0.451 -1.399,0.451c-0.668,-0 -1.239,-0.237 -1.713,-0.712c-0.472,-0.472 -0.708,-1.042 -0.708,-1.709c-0,-0.668 0.236,-1.238 0.708,-1.71c0.474,-0.474 1.045,-0.712 1.713,-0.712c0.628,0 1.172,0.214 1.634,0.64c0.46,0.421 0.718,0.941 0.774,1.557c0.009,0.087 0.013,0.161 0.013,0.225l-0.2,0.2Zm-2.221,-2.422c-0.613,0 -1.136,0.218 -1.571,0.653c-0.434,0.434 -0.65,0.956 -0.65,1.569c-0,0.612 0.216,1.135 0.65,1.568c0.435,0.435 0.958,0.653 1.571,0.653c0.472,-0 0.899,-0.138 1.282,-0.413c0.179,-0.129 0.334,-0.276 0.463,-0.441c0.141,-0.181 -0.167,-0.292 -0.277,-0.158c-0.117,0.142 -0.255,0.267 -0.414,0.373c-0.32,0.214 -0.671,0.321 -1.054,0.321c-0.505,0 -0.941,-0.173 -1.309,-0.52c-0.364,-0.346 -0.56,-0.77 -0.589,-1.271l4.113,0l0.006,-0.112c-0,-0.058 -0.004,-0.126 -0.012,-0.205c-0.052,-0.567 -0.288,-1.043 -0.71,-1.43c-0.424,-0.391 -0.923,-0.587 -1.499,-0.587Zm-1.892,2.017c0.05,-0.48 0.255,-0.882 0.615,-1.208c0.362,-0.327 0.788,-0.491 1.277,-0.491c0.487,0 0.913,0.164 1.276,0.491c0.359,0.326 0.564,0.728 0.616,1.208l-3.784,-0Zm0.236,-0.2c-0,-0 3.311,-0 3.311,-0c-0.078,-0.333 -0.249,-0.62 -0.513,-0.859c-0.325,-0.293 -0.706,-0.44 -1.142,-0.44c-0.438,0 -0.819,0.147 -1.143,0.44c-0.265,0.239 -0.436,0.526 -0.513,0.859Zm-20.03,-2.217l0,2.954c0,0.58 -0.205,1.077 -0.616,1.49l-0,0c-0.413,0.411 -0.909,0.616 -1.487,0.616c-0.581,0 -1.077,-0.205 -1.49,-0.616l-0.001,-0c-0.41,-0.413 -0.615,-0.91 -0.615,-1.49l-0,-2.598l0.717,0l0,2.598c0,0.384 0.136,0.711 0.407,0.982c0.271,0.271 0.598,0.406 0.982,0.406c0.382,0 0.708,-0.135 0.979,-0.406c0.273,-0.271 0.409,-0.599 0.409,-0.982l0,-2.368l0.715,-0.586Zm-0.515,0.68l0,2.274c0,0.439 -0.156,0.813 -0.467,1.123c-0.31,0.31 -0.684,0.465 -1.121,0.465c-0.439,0 -0.814,-0.155 -1.124,-0.465c-0.31,-0.31 -0.465,-0.684 -0.465,-1.123l0,-2.398l-0.317,0l-0,2.398c-0,0.525 0.185,0.975 0.557,1.349c0.374,0.371 0.823,0.557 1.349,0.557c0.524,0 0.972,-0.186 1.346,-0.557c0.371,-0.374 0.557,-0.824 0.557,-1.349l0,-2.532l-0.315,0.258Zm38.215,4.176c0,-0 0,-0.517 0,-0.517c-0.146,0.145 -0.31,0.271 -0.493,0.379l-0.001,0c-0.374,0.217 -0.777,0.325 -1.209,0.325c-0.667,-0 -1.238,-0.236 -1.713,-0.709l-0,-0c-0.472,-0.474 -0.708,-1.045 -0.708,-1.712c-0,-0.668 0.236,-1.238 0.708,-1.71c0.474,-0.474 1.045,-0.712 1.713,-0.712c0.667,0 1.237,0.238 1.71,0.712c0.474,0.472 0.711,1.042 0.711,1.71l-0,2.434l-0.718,-0l0,-0.2Zm0.2,-0l0.318,-0l-0,-2.234c-0,-0.613 -0.218,-1.135 -0.653,-1.569c-0.433,-0.435 -0.956,-0.653 -1.568,-0.653c-0.613,0 -1.136,0.218 -1.571,0.653c-0.434,0.434 -0.65,0.956 -0.65,1.569c-0,0.612 0.216,1.136 0.65,1.571c0.435,0.433 0.958,0.65 1.571,0.65c0.396,-0 0.766,-0.099 1.109,-0.298c0.331,-0.194 0.596,-0.456 0.794,-0.785l0,1.096Zm0,-2.234c0,0.525 -0.186,0.974 -0.557,1.346c-0.372,0.371 -0.821,0.557 -1.346,0.557c-0.526,0 -0.975,-0.186 -1.346,-0.557c-0.372,-0.372 -0.558,-0.821 -0.558,-1.346c0,-0.526 0.186,-0.975 0.558,-1.346c0.371,-0.372 0.82,-0.558 1.346,-0.558c0.525,0 0.974,0.186 1.346,0.558c0.371,0.371 0.557,0.82 0.557,1.346Zm-0.2,-0c0,-0.471 -0.166,-0.872 -0.499,-1.205c-0.332,-0.332 -0.734,-0.499 -1.204,-0.499c-0.471,0 -0.872,0.167 -1.205,0.499c-0.332,0.333 -0.499,0.734 -0.499,1.205c0,0.47 0.167,0.872 0.499,1.204c0.333,0.333 0.734,0.499 1.205,0.499c0.47,0 0.872,-0.166 1.204,-0.499c0.333,-0.332 0.499,-0.734 0.499,-1.204Zm-8.215,-1.717l-0,-1.501l-0,-0.2l0.717,0l0,3.418c0,0.667 -0.237,1.238 -0.711,1.712c-0.472,0.473 -1.042,0.709 -1.71,0.709c-0.667,-0 -1.238,-0.236 -1.712,-0.709l-0.001,-0c-0.472,-0.474 -0.708,-1.045 -0.708,-1.712c0,-0.668 0.236,-1.238 0.709,-1.71c0.474,-0.474 1.045,-0.712 1.712,-0.712c0.433,0 0.836,0.11 1.21,0.328c0.183,0.107 0.348,0.232 0.494,0.377Zm0.2,0.579c-0.199,-0.33 -0.463,-0.591 -0.795,-0.783c-0.342,-0.2 -0.712,-0.301 -1.109,-0.301c-0.612,0 -1.136,0.218 -1.571,0.653c-0.433,0.434 -0.65,0.956 -0.65,1.569c0,0.612 0.217,1.136 0.65,1.571c0.435,0.433 0.959,0.65 1.571,0.65c0.613,-0 1.135,-0.217 1.569,-0.65c0.435,-0.435 0.652,-0.959 0.652,-1.571l0,-3.218l-0.317,0l-0,2.08Zm-0,1.138c-0,0.525 -0.186,0.974 -0.558,1.346c-0.371,0.371 -0.82,0.557 -1.346,0.557c-0.525,0 -0.974,-0.186 -1.346,-0.557c-0.371,-0.372 -0.557,-0.821 -0.557,-1.346c-0,-0.526 0.186,-0.975 0.557,-1.346c0.372,-0.372 0.821,-0.558 1.346,-0.558c0.526,0 0.975,0.186 1.346,0.558c0.372,0.371 0.558,0.82 0.558,1.346Zm-0.2,-0c-0,-0.471 -0.167,-0.872 -0.499,-1.205c-0.333,-0.332 -0.734,-0.499 -1.205,-0.499c-0.47,0 -0.872,0.167 -1.204,0.499c-0.333,0.333 -0.499,0.734 -0.499,1.205c-0,0.47 0.166,0.872 0.499,1.204c0.332,0.333 0.734,0.499 1.204,0.499c0.471,0 0.872,-0.166 1.205,-0.499c0.332,-0.332 0.499,-0.734 0.499,-1.204Zm-22.376,2.069l-0.091,0.06c-0.291,0.188 -0.619,0.283 -0.985,0.283c-0.503,0 -0.934,-0.178 -1.29,-0.535c-0.361,-0.359 -0.541,-0.79 -0.541,-1.294l-0,-3.591l0.72,0c0,0 0,0.73 0,0.73l2.187,-0l-0,0.717l-2.187,0l0,2.144c0,0.307 0.109,0.569 0.326,0.786c0.217,0.217 0.479,0.325 0.785,0.325c0.286,0 0.533,-0.094 0.741,-0.283l0.335,-0.303l-0,0.961Zm-0.2,-0.51c-0.247,0.224 -0.539,0.335 -0.876,0.335c-0.362,0 -0.671,-0.128 -0.927,-0.384c-0.256,-0.256 -0.384,-0.565 -0.384,-0.927l0,-2.344l2.187,0l-0,-0.317l-2.187,-0l0,-0.73l-0.32,0l-0,3.391c-0,0.449 0.16,0.833 0.482,1.153c0.318,0.317 0.701,0.476 1.149,0.476c0.326,0 0.618,-0.084 0.876,-0.251l-0,-0.402Zm1.941,-3.489l0.718,-0.652l0,5.006l-0.718,0l0,-4.354Zm0.2,4.154l0.318,0l0,-4.354l-0.318,0.289l0,4.065Zm22.538,-4.356l0.718,-0.56l-0,5.116l-0.718,0l0,-4.556Zm0.2,4.356l0.318,0l-0,-4.506l-0.318,0.247l0,4.259Zm-30.046,-5.645l0.718,0l-0,5.853l-0.718,0l0,-5.853Zm0.2,5.653l0.318,0l-0,-5.453l-0.318,0l0,5.453Zm-14.578,0.206l-0,-2.829c-0,-0.511 0.181,-0.947 0.544,-1.308c0.36,-0.363 0.795,-0.544 1.305,-0.544c0.365,0 0.7,0.1 1.004,0.298c0.195,0.126 0.358,0.28 0.489,0.461c0.132,-0.181 0.295,-0.335 0.489,-0.461c0.305,-0.198 0.639,-0.298 1.002,-0.298c0.511,0 0.947,0.181 1.308,0.544c0.363,0.361 0.544,0.797 0.544,1.308l-0,2.829l-0.718,-0l0,-2.829c0,-0.312 -0.11,-0.58 -0.331,-0.803c-0.223,-0.221 -0.491,-0.331 -0.803,-0.331c-0.313,-0 -0.579,0.11 -0.8,0.331c-0.221,0.223 -0.332,0.491 -0.332,0.803l0,2.829l-0.718,-0l0,-2.829c0,-0.312 -0.11,-0.58 -0.331,-0.803c-0.223,-0.221 -0.49,-0.331 -0.803,-0.331c-0.312,-0 -0.579,0.11 -0.8,0.331c-0.221,0.223 -0.331,0.491 -0.331,0.803l-0,2.829l-0.718,-0Zm0.518,-0.2l-0,-2.629c-0,-0.367 0.129,-0.682 0.389,-0.944c0.26,-0.26 0.574,-0.39 0.942,-0.39c0.368,-0 0.683,0.13 0.945,0.39c0.259,0.262 0.389,0.577 0.389,0.944l0,2.629l0.318,-0l0,-2.629c0,-0.367 0.13,-0.682 0.39,-0.944c0.26,-0.26 0.574,-0.39 0.942,-0.39c0.367,-0 0.682,0.13 0.944,0.39c0.26,0.262 0.39,0.577 0.39,0.944l0,2.629l0.318,-0l-0,-2.629c-0,-0.456 -0.162,-0.845 -0.485,-1.167c-0.322,-0.323 -0.711,-0.485 -1.167,-0.485c-0.324,0 -0.621,0.089 -0.893,0.266c-0.264,0.171 -0.463,0.399 -0.598,0.684c-0.134,-0.285 -0.334,-0.513 -0.598,-0.684c-0.271,-0.177 -0.57,-0.266 -0.895,-0.266c-0.454,0 -0.842,0.162 -1.164,0.485c-0.323,0.322 -0.485,0.711 -0.485,1.167l-0,2.629l0.318,-0Zm23.428,0.199l-0,-2.829c-0,-0.511 0.181,-0.947 0.544,-1.308c0.36,-0.363 0.795,-0.544 1.305,-0.544c0.365,0 0.7,0.1 1.005,0.298c0.194,0.126 0.357,0.28 0.488,0.461c0.132,-0.181 0.295,-0.335 0.489,-0.461c0.305,-0.198 0.639,-0.298 1.002,-0.298c0.511,0 0.947,0.181 1.308,0.544c0.363,0.361 0.544,0.797 0.544,1.308l-0,2.829l-0.718,-0l0,-2.829c0,-0.312 -0.11,-0.58 -0.331,-0.803c-0.223,-0.221 -0.491,-0.331 -0.803,-0.331c-0.313,-0 -0.579,0.11 -0.8,0.331c-0.221,0.223 -0.332,0.491 -0.332,0.803l0,2.829l-0.718,-0l0,-2.829c0,-0.312 -0.11,-0.58 -0.331,-0.803c-0.223,-0.221 -0.49,-0.331 -0.803,-0.331c-0.312,-0 -0.579,0.11 -0.8,0.331c-0.221,0.223 -0.331,0.491 -0.331,0.803l-0,2.829l-0.718,-0Zm0.518,-0.2l-0,-2.629c-0,-0.367 0.13,-0.682 0.389,-0.944c0.26,-0.26 0.574,-0.39 0.942,-0.39c0.368,-0 0.683,0.13 0.945,0.39c0.26,0.262 0.389,0.577 0.389,0.944l0,2.629l0.318,-0l0,-2.629c0,-0.367 0.13,-0.682 0.39,-0.944c0.26,-0.26 0.574,-0.39 0.942,-0.39c0.368,-0 0.682,0.13 0.944,0.39c0.26,0.262 0.39,0.577 0.39,0.944l0,2.629l0.318,-0l-0,-2.629c-0,-0.456 -0.162,-0.845 -0.485,-1.167c-0.322,-0.323 -0.711,-0.485 -1.167,-0.485c-0.324,0 -0.621,0.089 -0.893,0.266c-0.264,0.171 -0.463,0.399 -0.598,0.684c-0.134,-0.285 -0.334,-0.513 -0.598,-0.684c-0.271,-0.177 -0.57,-0.266 -0.895,-0.266c-0.454,0 -0.842,0.162 -1.164,0.485c-0.323,0.322 -0.485,0.711 -0.485,1.167l-0,2.629l0.318,-0Z" style="fill:#fcaf2f;"/><defs><linearGradient id="_Linear2" x1="0" y1="0" x2="1" y2="0" gradientUnits="userSpaceOnUse" gradientTransform="matrix(3.51528e-16,-6.55597,3.50401,2.45022e-16,82.082,33.847)"><stop offset="0" style="stop-color:#d44404;stop-opacity:1"/><stop offset="0.38" style="stop-color:#f98404;stop-opacity:1"/><stop offset="1" style="stop-color:#edbc5d;stop-opacity:1"/></linearGradient></defs></svg>