<?xml version="1.0" encoding="UTF-8" standalone="no"?><!DOCTYPE svg PUBLIC "-//W3C//DTD SVG 1.1//EN" "http://www.w3.org/Graphics/SVG/1.1/DTD/svg11.dtd"><svg width="100%" height="100%" viewBox="0 0 114 29" version="1.1" xmlns="http://www.w3.org/2000/svg" xmlns:xlink="http://www.w3.org/1999/xlink" xml:space="preserve" xmlns:serif="http://www.serif.com/" style="fill-rule:evenodd;clip-rule:evenodd;stroke-linejoin:round;stroke-miterlimit:2;"><rect id="Artboard1" x="0" y="0" width="113.386" height="28.346" style="fill:none;"/><clipPath id="_clip1"><rect x="0" y="0" width="113.386" height="28.346"/></clipPath><g clip-path="url(#_clip1)"><g id="light"><path d="M6.234,16.926c3.4,-0 5.619,-1.703 5.619,-4.377c0,-2.965 -2.647,-3.753 -5.029,-4.356c-1.876,-0.499 -2.438,-0.709 -2.438,-1.443c-0,-0.473 0.67,-0.814 1.634,-0.814c1.179,0 2.624,0.446 3.881,1.207l1.578,-2.726c-1.525,-0.996 -3.477,-1.677 -5.459,-1.677c-3.265,-0 -5.431,1.834 -5.404,4.403c0.026,2.677 2.219,3.438 5.056,4.12c1.419,0.367 2.437,0.63 2.437,1.469c0,0.604 -0.75,1.024 -1.794,1.024c-1.849,-0 -3.4,-0.656 -4.63,-1.522l-1.685,2.648c1.658,1.31 4.012,2.044 6.234,2.044Z" style="fill:#3a73b1;fill-rule:nonzero;"/><path d="M17.017,5.94l-0,10.671l-3.904,0l0.005,-8.878c0.177,-0.243 0.911,-1.667 3.899,-1.793Z" style="fill:#3a73b1;"/><path d="M13.113,7.311l-0,-0.618c-0,-2.009 1.629,-3.639 3.639,-3.639l0.265,0l-0,1.438c-3.019,0.169 -3.715,2.56 -3.904,2.819Z" style="fill:#44addf;"/><path d="M34.939,2.74c-2.062,-0 -3.776,0.969 -4.498,2.463c-0.855,-1.52 -2.487,-2.463 -4.387,-2.463c-1.714,-0 -3.08,0.812 -3.75,2.096l0,-1.782l-3.904,0l0,13.557l3.904,0l0,-8.183c0,-1.443 1.098,-2.466 2.679,-2.466c1.419,0 2.437,1.102 2.437,2.676l-0,7.999l3.743,0l0,-8.209c0,-1.443 1.125,-2.466 2.678,-2.466c1.447,0 2.464,1.102 2.464,2.676l0,7.999l3.744,0l-0,-8.655c-0,-3.068 -2.22,-5.242 -5.11,-5.242Z" style="fill:#3a73b1;fill-rule:nonzero;"/><path d="M52.698,2.74c-2.062,-0 -3.776,0.969 -4.498,2.463c-0.856,-1.52 -2.487,-2.463 -4.388,-2.463c-1.714,-0 -3.287,0.812 -3.957,2.096l-0.437,0.761l0.645,2.831c0,-1.443 1.098,-2.466 2.678,-2.466c1.42,0 2.437,1.102 2.437,2.676l0,7.999l3.744,0l-0,-8.209c-0,-1.443 1.125,-2.466 2.678,-2.466c1.446,0 2.464,1.102 2.464,2.676l-0,7.999l3.743,0l0,-8.655c0,-3.068 -2.219,-5.242 -5.109,-5.242Z" style="fill:#3a73b1;fill-rule:nonzero;"/><path d="M66.49,16.637c4.013,0 7.366,-3.183 7.366,-6.961c0,-3.779 -3.353,-6.936 -7.366,-6.936c-4.039,-0 -7.418,3.157 -7.418,6.936c-0,3.778 3.379,6.961 7.418,6.961Zm-1.079,-3.163c-1.81,-0.557 -2.821,-2.765 -2.237,-4.816c0.584,-2.052 2.581,-3.305 4.391,-2.748c1.787,0.549 2.806,2.731 2.222,4.783c-0.584,2.051 -2.589,3.331 -4.376,2.781Z" style="fill:#3a73b1;fill-rule:nonzero;"/><path d="M83.047,2.74c-1.794,-0 -3.347,0.786 -4.177,2.017l-0,-1.703l-3.904,0l-0,13.557l3.904,0l-0,-8.104l0.027,0.078c-0,-1.469 1.258,-2.623 2.892,-2.623c1.553,0 2.624,1.154 2.624,2.833l0,7.816l3.771,0l-0,-8.629c-0,-3.068 -2.14,-5.242 -5.137,-5.242Z" style="fill:#3a73b1;fill-rule:nonzero;"/><path d="M95.91,16.926c3.399,-0 5.618,-1.703 5.618,-4.377c0,-2.965 -2.647,-3.753 -5.029,-4.356c-1.875,-0.499 -2.438,-0.709 -2.438,-1.443c0,-0.473 0.67,-0.814 1.634,-0.814c1.179,0 2.625,0.446 3.881,1.207l1.578,-2.726c-1.524,-0.996 -3.476,-1.677 -5.459,-1.677c-3.265,-0 -5.431,1.834 -5.404,4.403c0.027,2.677 2.219,3.438 5.056,4.12c1.42,0.367 2.438,0.63 2.438,1.469c-0,0.604 -0.75,1.024 -1.795,1.024c-1.848,-0 -3.399,-0.656 -4.63,-1.522l-1.685,2.648c1.659,1.31 4.012,2.044 6.235,2.044Z" style="fill:#3a73b1;fill-rule:nonzero;"/></g><rect x="111.352" y="2.118" width="2.034" height="24.71" style="fill:#e97121;"/><path d="M54.336,21.228l-0,2.735c-0,0.528 -0.188,0.978 -0.563,1.351c-0.373,0.373 -0.822,0.56 -1.348,0.56c-0.528,-0 -0.979,-0.187 -1.352,-0.56c-0.373,-0.373 -0.559,-0.823 -0.559,-1.351l-0,-2.884l-0.383,-0l0,2.884c0,0.632 0.224,1.173 0.671,1.622c0.449,0.447 0.99,0.671 1.623,0.671c0.63,-0 1.169,-0.224 1.619,-0.671c0.447,-0.449 0.67,-0.99 0.67,-1.622l0,-3.046l-0.378,0.311Zm26.706,-0.337c-0.736,0 -1.366,0.262 -1.89,0.785c-0.521,0.522 -0.782,1.15 -0.782,1.887c0,0.737 0.261,1.366 0.782,1.887c0.524,0.523 1.154,0.785 1.89,0.785c0.568,0 1.082,-0.166 1.543,-0.497c0.215,-0.154 0.401,-0.331 0.557,-0.531c0.169,-0.216 -0.201,-0.35 -0.334,-0.189c-0.14,0.171 -0.306,0.321 -0.498,0.449c-0.384,0.257 -0.807,0.386 -1.268,0.386c-0.607,-0 -1.131,-0.209 -1.574,-0.626c-0.438,-0.417 -0.674,-0.926 -0.709,-1.528l4.948,-0l0.007,-0.136c0,-0.069 -0.004,-0.152 -0.014,-0.247c-0.062,-0.681 -0.347,-1.254 -0.854,-1.72c-0.51,-0.47 -1.111,-0.705 -1.804,-0.705Zm19.506,5.36l0.382,-0l0,-2.688c0,-0.737 -0.262,-1.365 -0.785,-1.887c-0.521,-0.523 -1.15,-0.785 -1.887,-0.785c-0.737,0 -1.367,0.262 -1.89,0.785c-0.521,0.522 -0.782,1.15 -0.782,1.887c0,0.737 0.261,1.367 0.782,1.89c0.523,0.521 1.153,0.782 1.89,0.782c0.477,0 0.922,-0.119 1.334,-0.358c0.399,-0.234 0.717,-0.549 0.956,-0.945l-0,1.319Zm-9.883,-4.057c-0.239,-0.396 -0.557,-0.71 -0.956,-0.942c-0.412,-0.24 -0.857,-0.361 -1.334,-0.361c-0.737,0 -1.367,0.262 -1.89,0.785c-0.521,0.522 -0.782,1.15 -0.782,1.887c-0,0.737 0.261,1.367 0.782,1.89c0.523,0.521 1.153,0.782 1.89,0.782c0.737,0 1.365,-0.261 1.887,-0.782c0.523,-0.523 0.785,-1.153 0.785,-1.89l-0,-3.871l-0.382,0l-0,2.502Zm-27.399,3.245c-0.297,0.269 -0.648,0.403 -1.053,0.403c-0.436,0 -0.807,-0.154 -1.116,-0.462c-0.308,-0.308 -0.462,-0.68 -0.462,-1.115l0,-2.82l2.631,0l-0,-0.382l-2.631,0l0,-0.877l-0.385,-0l-0,4.079c-0,0.54 0.193,1.002 0.58,1.386c0.382,0.383 0.843,0.574 1.383,0.574c0.391,-0 0.742,-0.101 1.053,-0.303l-0,-0.483Zm2.576,0.8l0.382,0l0,-5.238l-0.382,0.347l0,4.891Zm27.353,0l0.382,0l0,-5.421l-0.382,0.298l0,5.123Zm-35.904,0.01l0.382,0l0,-6.56l-0.382,-0l-0,6.56Zm-16.915,0.006l0,-3.161c0,-0.443 0.157,-0.822 0.469,-1.137c0.313,-0.312 0.691,-0.469 1.133,-0.469c0.443,0 0.821,0.157 1.136,0.469c0.313,0.315 0.469,0.694 0.469,1.137l0,3.161l0.383,0l-0,-3.161c-0,-0.443 0.156,-0.822 0.469,-1.137c0.312,-0.312 0.69,-0.469 1.132,-0.469c0.443,0 0.822,0.157 1.137,0.469c0.312,0.315 0.469,0.694 0.469,1.137l-0,3.161l0.382,0l-0,-3.161c-0,-0.549 -0.195,-1.017 -0.584,-1.404c-0.387,-0.389 -0.855,-0.584 -1.404,-0.584c-0.389,0 -0.747,0.107 -1.073,0.32c-0.318,0.206 -0.557,0.48 -0.719,0.823c-0.163,-0.343 -0.402,-0.617 -0.72,-0.823c-0.326,-0.213 -0.685,-0.32 -1.077,-0.32c-0.546,0 -1.013,0.195 -1.4,0.584c-0.389,0.387 -0.584,0.855 -0.584,1.404l0,3.161l0.382,0Zm28.807,-0.001l0,-3.162c0,-0.442 0.156,-0.821 0.469,-1.136c0.313,-0.313 0.69,-0.469 1.133,-0.469c0.442,0 0.821,0.156 1.136,0.469c0.313,0.315 0.469,0.694 0.469,1.136l0,3.162l0.382,0l0,-3.162c0,-0.442 0.157,-0.821 0.469,-1.136c0.313,-0.313 0.691,-0.469 1.133,-0.469c0.443,0 0.821,0.156 1.136,0.469c0.313,0.315 0.469,0.694 0.469,1.136l0,3.162l0.383,0l-0,-3.162c-0,-0.549 -0.195,-1.017 -0.584,-1.403c-0.387,-0.39 -0.855,-0.584 -1.404,-0.584c-0.389,-0 -0.747,0.106 -1.074,0.32c-0.317,0.206 -0.557,0.48 -0.719,0.823c-0.162,-0.343 -0.402,-0.617 -0.719,-0.823c-0.327,-0.214 -0.686,-0.32 -1.077,-0.32c-0.547,-0 -1.014,0.194 -1.4,0.584c-0.39,0.386 -0.584,0.854 -0.584,1.403l-0,3.162l0.382,0Zm31.365,-2.691c-0,0.632 -0.224,1.172 -0.671,1.619c-0.447,0.447 -0.987,0.671 -1.619,0.671c-0.632,-0 -1.172,-0.224 -1.619,-0.671c-0.447,-0.447 -0.671,-0.987 -0.671,-1.619c0,-0.632 0.224,-1.172 0.671,-1.619c0.447,-0.447 0.987,-0.671 1.619,-0.671c0.632,0 1.172,0.224 1.619,0.671c0.447,0.447 0.671,0.987 0.671,1.619Zm-9.883,0c-0,0.632 -0.224,1.172 -0.671,1.619c-0.447,0.447 -0.987,0.671 -1.619,0.671c-0.632,-0 -1.172,-0.224 -1.619,-0.671c-0.447,-0.447 -0.671,-0.987 -0.671,-1.619c0,-0.632 0.224,-1.172 0.671,-1.619c0.447,-0.447 0.987,-0.671 1.619,-0.671c0.632,0 1.172,0.224 1.619,0.671c0.447,0.447 0.671,0.987 0.671,1.619Zm-11.899,-0.247c0.061,-0.576 0.307,-1.061 0.74,-1.452c0.436,-0.394 0.948,-0.591 1.536,-0.591c0.586,0 1.098,0.197 1.536,0.591c0.431,0.391 0.678,0.876 0.74,1.452l-4.552,0Z" style="fill:#f59d36;fill-rule:nonzero;"/><clipPath id="_clip2"><path d="M54.336,21.228l-0,2.735c-0,0.528 -0.188,0.978 -0.563,1.351c-0.373,0.373 -0.822,0.56 -1.348,0.56c-0.528,-0 -0.979,-0.187 -1.352,-0.56c-0.373,-0.373 -0.559,-0.823 -0.559,-1.351l-0,-2.884l-0.383,-0l0,2.884c0,0.632 0.224,1.173 0.671,1.622c0.449,0.447 0.99,0.671 1.623,0.671c0.63,-0 1.169,-0.224 1.619,-0.671c0.447,-0.449 0.67,-0.99 0.67,-1.622l0,-3.046l-0.378,0.311Zm26.706,-0.337c-0.736,0 -1.366,0.262 -1.89,0.785c-0.521,0.522 -0.782,1.15 -0.782,1.887c0,0.737 0.261,1.366 0.782,1.887c0.524,0.523 1.154,0.785 1.89,0.785c0.568,0 1.082,-0.166 1.543,-0.497c0.215,-0.154 0.401,-0.331 0.557,-0.531c0.169,-0.216 -0.201,-0.35 -0.334,-0.189c-0.14,0.171 -0.306,0.321 -0.498,0.449c-0.384,0.257 -0.807,0.386 -1.268,0.386c-0.607,-0 -1.131,-0.209 -1.574,-0.626c-0.438,-0.417 -0.674,-0.926 -0.709,-1.528l4.948,-0l0.007,-0.136c0,-0.069 -0.004,-0.152 -0.014,-0.247c-0.062,-0.681 -0.347,-1.254 -0.854,-1.72c-0.51,-0.47 -1.111,-0.705 -1.804,-0.705Zm19.506,5.36l0.382,-0l0,-2.688c0,-0.737 -0.262,-1.365 -0.785,-1.887c-0.521,-0.523 -1.15,-0.785 -1.887,-0.785c-0.737,0 -1.367,0.262 -1.89,0.785c-0.521,0.522 -0.782,1.15 -0.782,1.887c0,0.737 0.261,1.367 0.782,1.89c0.523,0.521 1.153,0.782 1.89,0.782c0.477,0 0.922,-0.119 1.334,-0.358c0.399,-0.234 0.717,-0.549 0.956,-0.945l-0,1.319Zm-9.883,-4.057c-0.239,-0.396 -0.557,-0.71 -0.956,-0.942c-0.412,-0.24 -0.857,-0.361 -1.334,-0.361c-0.737,0 -1.367,0.262 -1.89,0.785c-0.521,0.522 -0.782,1.15 -0.782,1.887c-0,0.737 0.261,1.367 0.782,1.89c0.523,0.521 1.153,0.782 1.89,0.782c0.737,0 1.365,-0.261 1.887,-0.782c0.523,-0.523 0.785,-1.153 0.785,-1.89l-0,-3.871l-0.382,0l-0,2.502Zm-27.399,3.245c-0.297,0.269 -0.648,0.403 -1.053,0.403c-0.436,0 -0.807,-0.154 -1.116,-0.462c-0.308,-0.308 -0.462,-0.68 -0.462,-1.115l0,-2.82l2.631,0l-0,-0.382l-2.631,0l0,-0.877l-0.385,-0l-0,4.079c-0,0.54 0.193,1.002 0.58,1.386c0.382,0.383 0.843,0.574 1.383,0.574c0.391,-0 0.742,-0.101 1.053,-0.303l-0,-0.483Zm2.576,0.8l0.382,0l0,-5.238l-0.382,0.347l0,4.891Zm27.353,0l0.382,0l0,-5.421l-0.382,0.298l0,5.123Zm-35.904,0.01l0.382,0l0,-6.56l-0.382,-0l-0,6.56Zm-16.915,0.006l0,-3.161c0,-0.443 0.157,-0.822 0.469,-1.137c0.313,-0.312 0.691,-0.469 1.133,-0.469c0.443,0 0.821,0.157 1.136,0.469c0.313,0.315 0.469,0.694 0.469,1.137l0,3.161l0.383,0l-0,-3.161c-0,-0.443 0.156,-0.822 0.469,-1.137c0.312,-0.312 0.69,-0.469 1.132,-0.469c0.443,0 0.822,0.157 1.137,0.469c0.312,0.315 0.469,0.694 0.469,1.137l-0,3.161l0.382,0l-0,-3.161c-0,-0.549 -0.195,-1.017 -0.584,-1.404c-0.387,-0.389 -0.855,-0.584 -1.404,-0.584c-0.389,0 -0.747,0.107 -1.073,0.32c-0.318,0.206 -0.557,0.48 -0.719,0.823c-0.163,-0.343 -0.402,-0.617 -0.72,-0.823c-0.326,-0.213 -0.685,-0.32 -1.077,-0.32c-0.546,0 -1.013,0.195 -1.4,0.584c-0.389,0.387 -0.584,0.855 -0.584,1.404l0,3.161l0.382,0Zm28.807,-0.001l0,-3.162c0,-0.442 0.156,-0.821 0.469,-1.136c0.313,-0.313 0.69,-0.469 1.133,-0.469c0.442,0 0.821,0.156 1.136,0.469c0.313,0.315 0.469,0.694 0.469,1.136l0,3.162l0.382,0l0,-3.162c0,-0.442 0.157,-0.821 0.469,-1.136c0.313,-0.313 0.691,-0.469 1.133,-0.469c0.443,0 0.821,0.156 1.136,0.469c0.313,0.315 0.469,0.694 0.469,1.136l0,3.162l0.383,0l-0,-3.162c-0,-0.549 -0.195,-1.017 -0.584,-1.403c-0.387,-0.39 -0.855,-0.584 -1.404,-0.584c-0.389,-0 -0.747,0.106 -1.074,0.32c-0.317,0.206 -0.557,0.48 -0.719,0.823c-0.162,-0.343 -0.402,-0.617 -0.719,-0.823c-0.327,-0.214 -0.686,-0.32 -1.077,-0.32c-0.547,-0 -1.014,0.194 -1.4,0.584c-0.39,0.386 -0.584,0.854 -0.584,1.403l-0,3.162l0.382,0Zm31.365,-2.691c-0,0.632 -0.224,1.172 -0.671,1.619c-0.447,0.447 -0.987,0.671 -1.619,0.671c-0.632,-0 -1.172,-0.224 -1.619,-0.671c-0.447,-0.447 -0.671,-0.987 -0.671,-1.619c0,-0.632 0.224,-1.172 0.671,-1.619c0.447,-0.447 0.987,-0.671 1.619,-0.671c0.632,0 1.172,0.224 1.619,0.671c0.447,0.447 0.671,0.987 0.671,1.619Zm-9.883,0c-0,0.632 -0.224,1.172 -0.671,1.619c-0.447,0.447 -0.987,0.671 -1.619,0.671c-0.632,-0 -1.172,-0.224 -1.619,-0.671c-0.447,-0.447 -0.671,-0.987 -0.671,-1.619c0,-0.632 0.224,-1.172 0.671,-1.619c0.447,-0.447 0.987,-0.671 1.619,-0.671c0.632,0 1.172,0.224 1.619,0.671c0.447,0.447 0.671,0.987 0.671,1.619Zm-11.899,-0.247c0.061,-0.576 0.307,-1.061 0.74,-1.452c0.436,-0.394 0.948,-0.591 1.536,-0.591c0.586,0 1.098,0.197 1.536,0.591c0.431,0.391 0.678,0.876 0.74,1.452l-4.552,0Z" clip-rule="nonzero"/></clipPath><g clip-path="url(#_clip2)"><path d="M120.875,26.323c-0,-0.118 -0.096,-0.214 -0.214,-0.214c-4.042,0 -64.125,0 -68.363,0c-0.13,0 -0.235,0.105 -0.235,0.235c0,1.4 0,8.57 0,8.57l68.812,-0l-0,-8.591Z" style="fill:url(#_Linear3);"/></g><path d="M54.914,20.495l0,3.468c0,0.687 -0.242,1.275 -0.729,1.764l-0,0c-0.489,0.486 -1.075,0.729 -1.76,0.729c-0.688,-0 -1.276,-0.243 -1.764,-0.729l-0.001,-0.001c-0.486,-0.488 -0.729,-1.076 -0.729,-1.763l0,-3.084l0.783,-0l-0,3.084c-0,0.473 0.167,0.876 0.5,1.21c0.334,0.334 0.738,0.501 1.211,0.501c0.47,-0 0.873,-0.167 1.207,-0.501c0.336,-0.334 0.504,-0.738 0.504,-1.21l-0,-2.83l0.778,-0.638Zm-0.578,0.733l-0,2.735c-0,0.528 -0.188,0.978 -0.563,1.351c-0.373,0.373 -0.822,0.56 -1.348,0.56c-0.528,-0 -0.979,-0.187 -1.352,-0.56c-0.373,-0.373 -0.559,-0.823 -0.559,-1.351l-0,-2.884l-0.383,-0l0,2.884c0,0.632 0.224,1.173 0.671,1.622c0.449,0.447 0.99,0.671 1.623,0.671c0.63,-0 1.169,-0.224 1.619,-0.671c0.447,-0.449 0.67,-0.99 0.67,-1.622l0,-3.046l-0.378,0.311Zm26.706,-0.537c0.745,0 1.391,0.253 1.939,0.758c0.545,0.501 0.851,1.117 0.918,1.848c0.01,0.103 0.015,0.191 0.015,0.266l0,0.005l-0.017,0.331c0,-0 -4.916,-0 -4.916,-0c0.069,0.458 0.278,0.853 0.625,1.183c0.404,0.381 0.882,0.571 1.436,0.571c0.421,-0 0.806,-0.117 1.157,-0.352c0.175,-0.117 0.327,-0.254 0.455,-0.41c0.123,-0.15 0.354,-0.177 0.518,-0.102c0.098,0.045 0.169,0.123 0.198,0.214c0.029,0.091 0.025,0.205 -0.071,0.328c-0.167,0.214 -0.366,0.404 -0.597,0.57c-0.496,0.356 -1.049,0.534 -1.66,0.534c-0.791,0 -1.469,-0.281 -2.031,-0.844c-0.561,-0.56 -0.841,-1.236 -0.841,-2.028c0,-0.792 0.28,-1.468 0.841,-2.028c0.562,-0.563 1.24,-0.844 2.031,-0.844Zm0,0.2c-0.736,0 -1.366,0.262 -1.89,0.785c-0.521,0.522 -0.782,1.15 -0.782,1.887c0,0.737 0.261,1.366 0.782,1.887c0.524,0.523 1.154,0.785 1.89,0.785c0.568,0 1.082,-0.166 1.543,-0.497c0.215,-0.154 0.401,-0.331 0.557,-0.531c0.169,-0.216 -0.201,-0.35 -0.334,-0.189c-0.14,0.171 -0.306,0.321 -0.498,0.449c-0.384,0.257 -0.807,0.386 -1.268,0.386c-0.607,-0 -1.131,-0.209 -1.574,-0.626c-0.438,-0.417 -0.674,-0.926 -0.709,-1.528l4.948,-0l0.007,-0.136c0,-0.069 -0.004,-0.152 -0.014,-0.247c-0.062,-0.681 -0.347,-1.254 -0.854,-1.72c-0.51,-0.47 -1.111,-0.705 -1.804,-0.705Zm-2.276,2.425c0.061,-0.576 0.307,-1.061 0.74,-1.452c0.436,-0.394 0.948,-0.591 1.536,-0.591c0.586,0 1.098,0.197 1.536,0.591c0.431,0.391 0.678,0.876 0.74,1.452l-4.552,0Zm0.233,-0.2c0,0 4.085,0 4.085,0c-0.09,-0.43 -0.303,-0.798 -0.64,-1.104c-0.4,-0.359 -0.867,-0.539 -1.402,-0.539c-0.537,0 -1.004,0.18 -1.401,0.539c-0.339,0.306 -0.553,0.674 -0.642,1.104Zm21.349,3.135c-0,-0 -0,-0.723 -0,-0.722c-0.19,0.202 -0.408,0.376 -0.655,0.521l-0,0c-0.444,0.257 -0.922,0.385 -1.435,0.385c-0.791,0 -1.469,-0.28 -2.031,-0.84l-0.001,-0.001c-0.56,-0.562 -0.84,-1.239 -0.84,-2.031c0,-0.792 0.28,-1.468 0.841,-2.028c0.562,-0.563 1.239,-0.844 2.031,-0.844c0.792,0 1.468,0.281 2.028,0.844c0.563,0.56 0.844,1.236 0.844,2.028l0,2.888l-0.782,-0l-0,-0.2Zm0.2,-0l0.382,-0l0,-2.688c0,-0.737 -0.262,-1.365 -0.785,-1.887c-0.521,-0.523 -1.15,-0.785 -1.887,-0.785c-0.737,0 -1.367,0.262 -1.89,0.785c-0.521,0.522 -0.782,1.15 -0.782,1.887c0,0.737 0.261,1.367 0.782,1.89c0.523,0.521 1.153,0.782 1.89,0.782c0.477,0 0.922,-0.119 1.334,-0.358c0.399,-0.234 0.717,-0.549 0.956,-0.945l-0,1.319Zm-0,-2.688c-0,0.632 -0.224,1.172 -0.671,1.619c-0.447,0.447 -0.987,0.671 -1.619,0.671c-0.632,-0 -1.172,-0.224 -1.619,-0.671c-0.447,-0.447 -0.671,-0.987 -0.671,-1.619c0,-0.632 0.224,-1.172 0.671,-1.619c0.447,-0.447 0.987,-0.671 1.619,-0.671c0.632,0 1.172,0.224 1.619,0.671c0.447,0.447 0.671,0.987 0.671,1.619Zm-0.2,0c-0,-0.577 -0.204,-1.07 -0.612,-1.478c-0.408,-0.408 -0.901,-0.612 -1.478,-0.612c-0.577,0 -1.07,0.204 -1.478,0.612c-0.408,0.408 -0.612,0.901 -0.612,1.478c0,0.577 0.204,1.07 0.612,1.478c0.408,0.408 0.901,0.612 1.478,0.612c0.577,-0 1.07,-0.204 1.478,-0.612c0.408,-0.408 0.612,-0.901 0.612,-1.478Zm-9.883,-1.965l-0,-1.906l-0,-0.2l0.782,0l-0,4.071c-0,0.792 -0.281,1.469 -0.844,2.032c-0.56,0.56 -1.236,0.84 -2.028,0.84c-0.792,0 -1.469,-0.28 -2.032,-0.84l0,-0.001c-0.56,-0.562 -0.84,-1.239 -0.84,-2.031c-0,-0.792 0.28,-1.468 0.84,-2.028c0.563,-0.563 1.24,-0.844 2.032,-0.844c0.513,0 0.991,0.13 1.435,0.389c0.247,0.143 0.465,0.316 0.655,0.518Zm0.2,0.596c-0.239,-0.396 -0.557,-0.71 -0.956,-0.942c-0.412,-0.24 -0.857,-0.361 -1.334,-0.361c-0.737,0 -1.367,0.262 -1.89,0.785c-0.521,0.522 -0.782,1.15 -0.782,1.887c-0,0.737 0.261,1.367 0.782,1.89c0.523,0.521 1.153,0.782 1.89,0.782c0.737,0 1.365,-0.261 1.887,-0.782c0.523,-0.523 0.785,-1.153 0.785,-1.89l-0,-3.871l-0.382,0l-0,2.502Zm-0,1.369c-0,0.632 -0.224,1.172 -0.671,1.619c-0.447,0.447 -0.987,0.671 -1.619,0.671c-0.632,-0 -1.172,-0.224 -1.619,-0.671c-0.447,-0.447 -0.671,-0.987 -0.671,-1.619c0,-0.632 0.224,-1.172 0.671,-1.619c0.447,-0.447 0.987,-0.671 1.619,-0.671c0.632,0 1.172,0.224 1.619,0.671c0.447,0.447 0.671,0.987 0.671,1.619Zm-0.2,0c-0,-0.577 -0.204,-1.07 -0.612,-1.478c-0.408,-0.408 -0.901,-0.612 -1.478,-0.612c-0.577,0 -1.07,0.204 -1.478,0.612c-0.408,0.408 -0.612,0.901 -0.612,1.478c0,0.577 0.204,1.07 0.612,1.478c0.408,0.408 0.901,0.612 1.478,0.612c0.577,-0 1.07,-0.204 1.478,-0.612c0.408,-0.408 0.612,-0.901 0.612,-1.478Zm-26.999,2.468l-0.091,0.059c-0.343,0.223 -0.73,0.335 -1.162,0.335c-0.595,-0 -1.103,-0.211 -1.524,-0.632c-0.427,-0.424 -0.639,-0.933 -0.639,-1.528l-0,-4.279l0.785,-0l0,0.877l2.631,0l-0,0.782c-0,0 -2.631,0 -2.631,0l0,2.62c0,0.38 0.135,0.705 0.404,0.974c0.269,0.269 0.594,0.403 0.974,0.403c0.353,0 0.66,-0.116 0.918,-0.351l0.335,-0.303l-0,1.043Zm-0.2,-0.592c-0.297,0.269 -0.648,0.403 -1.053,0.403c-0.436,0 -0.807,-0.154 -1.116,-0.462c-0.308,-0.308 -0.462,-0.68 -0.462,-1.115l0,-2.82l2.631,0l-0,-0.382l-2.631,0l0,-0.877l-0.385,-0l-0,4.079c-0,0.54 0.193,1.002 0.58,1.386c0.382,0.383 0.843,0.574 1.383,0.574c0.391,-0 0.742,-0.101 1.053,-0.303l-0,-0.483Zm2.376,-4.179l0.782,-0.711l0,5.89l-0.782,0l0,-5.179Zm0.2,4.979l0.382,0l0,-5.238l-0.382,0.347l0,4.891Zm27.153,-5.221l0.782,-0.609l0,6.03l-0.782,0l0,-5.421Zm0.2,5.221l0.382,0l0,-5.421l-0.382,0.298l0,5.123Zm-36.104,-6.75l0.782,-0l0,6.96l-0.782,0l-0,-6.96Zm0.2,6.76l0.382,0l0,-6.56l-0.382,-0l-0,6.56Zm-17.497,0.206l0,-3.361c0,-0.605 0.214,-1.12 0.643,-1.546c0.425,-0.428 0.939,-0.642 1.541,-0.642c0.431,0 0.827,0.117 1.186,0.352c0.246,0.16 0.449,0.357 0.611,0.591c0.161,-0.234 0.364,-0.431 0.61,-0.591c0.36,-0.235 0.754,-0.352 1.182,-0.352c0.605,0 1.12,0.214 1.546,0.642c0.428,0.426 0.642,0.941 0.642,1.546l-0,3.361l-0.782,0l-0,-3.361c-0,-0.388 -0.137,-0.719 -0.411,-0.995c-0.276,-0.274 -0.607,-0.411 -0.995,-0.411c-0.387,0 -0.717,0.137 -0.991,0.411c-0.273,0.275 -0.41,0.607 -0.41,0.995l-0,3.361l-0.783,0l0,-3.361c0,-0.388 -0.136,-0.719 -0.41,-0.995c-0.276,-0.274 -0.607,-0.411 -0.995,-0.411c-0.387,0 -0.717,0.137 -0.991,0.411c-0.274,0.275 -0.411,0.607 -0.411,0.995l0,3.361l-0.782,0Zm0.582,-0.2l0,-3.161c0,-0.443 0.157,-0.822 0.469,-1.137c0.313,-0.312 0.691,-0.469 1.133,-0.469c0.443,0 0.821,0.157 1.136,0.469c0.313,0.315 0.469,0.694 0.469,1.137l0,3.161l0.383,0l-0,-3.161c-0,-0.443 0.156,-0.822 0.469,-1.137c0.312,-0.312 0.69,-0.469 1.132,-0.469c0.443,0 0.822,0.157 1.137,0.469c0.312,0.315 0.469,0.694 0.469,1.137l-0,3.161l0.382,0l-0,-3.161c-0,-0.549 -0.195,-1.017 -0.584,-1.404c-0.387,-0.389 -0.855,-0.584 -1.404,-0.584c-0.389,0 -0.747,0.107 -1.073,0.32c-0.318,0.206 -0.557,0.48 -0.719,0.823c-0.163,-0.343 -0.402,-0.617 -0.72,-0.823c-0.326,-0.213 -0.685,-0.32 -1.077,-0.32c-0.546,0 -1.013,0.195 -1.4,0.584c-0.389,0.387 -0.584,0.855 -0.584,1.404l0,3.161l0.382,0Zm28.225,0.199l-0,-3.362c-0,-0.604 0.214,-1.119 0.642,-1.545c0.426,-0.428 0.94,-0.642 1.542,-0.642c0.431,-0 0.826,0.117 1.186,0.352c0.246,0.16 0.449,0.356 0.61,0.59c0.161,-0.234 0.365,-0.43 0.61,-0.59c0.36,-0.235 0.754,-0.352 1.183,-0.352c0.604,-0 1.119,0.214 1.545,0.642c0.428,0.426 0.643,0.941 0.643,1.545l-0,3.362l-0.783,0l0,-3.362c0,-0.387 -0.137,-0.719 -0.41,-0.994c-0.276,-0.274 -0.608,-0.411 -0.995,-0.411c-0.387,0 -0.717,0.137 -0.991,0.41c-0.274,0.276 -0.411,0.608 -0.411,0.995l0,3.362l-0.782,0l0,-3.362c0,-0.387 -0.137,-0.719 -0.41,-0.994c-0.276,-0.274 -0.608,-0.411 -0.995,-0.411c-0.387,0 -0.718,0.137 -0.991,0.41c-0.274,0.276 -0.411,0.608 -0.411,0.995l0,3.362l-0.782,0Zm0.582,-0.2l0,-3.162c0,-0.442 0.156,-0.821 0.469,-1.136c0.313,-0.313 0.69,-0.469 1.133,-0.469c0.442,0 0.821,0.156 1.136,0.469c0.313,0.315 0.469,0.694 0.469,1.136l0,3.162l0.382,0l0,-3.162c0,-0.442 0.157,-0.821 0.469,-1.136c0.313,-0.313 0.691,-0.469 1.133,-0.469c0.443,0 0.821,0.156 1.136,0.469c0.313,0.315 0.469,0.694 0.469,1.136l0,3.162l0.383,0l-0,-3.162c-0,-0.549 -0.195,-1.017 -0.584,-1.403c-0.387,-0.39 -0.855,-0.584 -1.404,-0.584c-0.389,-0 -0.747,0.106 -1.074,0.32c-0.317,0.206 -0.557,0.48 -0.719,0.823c-0.162,-0.343 -0.402,-0.617 -0.719,-0.823c-0.327,-0.214 -0.686,-0.32 -1.077,-0.32c-0.547,-0 -1.014,0.194 -1.4,0.584c-0.39,0.386 -0.584,0.854 -0.584,1.403l-0,3.162l0.382,0Z" style="fill:#e97121;"/></g><defs><linearGradient id="_Linear3" x1="0" y1="0" x2="1" y2="0" gradientUnits="userSpaceOnUse" gradientTransform="matrix(4.22881e-16,-7.8867,4.21525,2.94756e-16,86.658,34.1522)"><stop offset="0" style="stop-color:#d44404;stop-opacity:1"/><stop offset="0.38" style="stop-color:#f98404;stop-opacity:1"/><stop offset="1" style="stop-color:#edbc5d;stop-opacity:1"/></linearGradient></defs></svg>